<svg width="9" height="16" viewBox="0 0 9 16" fill="none" xmlns="http://www.w3.org/2000/svg">
<path d="M0.517394 13.0713L5.23148 7.86303L0.517394 2.65473C0.40491 2.53045 0.315683 2.38291 0.254807 2.22054C0.193931 2.05816 0.162598 1.88413 0.162598 1.70837C0.162598 1.53262 0.193931 1.35859 0.254807 1.19621C0.315683 1.03383 0.40491 0.886296 0.517394 0.762019C0.629879 0.637742 0.763417 0.53916 0.910385 0.471901C1.05735 0.404643 1.21487 0.370026 1.37395 0.370026C1.53303 0.370026 1.69054 0.404643 1.83751 0.471901C1.98448 0.53916 2.11802 0.637742 2.2305 0.762019L7.80722 6.92339C8.28106 7.4469 8.28106 8.29258 7.80722 8.8161L2.2305 14.9775C2.1181 15.1019 1.98459 15.2006 1.83761 15.268C1.69063 15.3354 1.53307 15.37 1.37395 15.37C1.21483 15.37 1.05727 15.3354 0.910286 15.268C0.763307 15.2006 0.629796 15.1019 0.517394 14.9775C0.0557055 14.4539 0.0435558 13.5948 0.517394 13.0713Z" fill="gray"/>
</svg>
