<svg width="7" height="12" viewBox="0 0 7 12" fill="none" xmlns="http://www.w3.org/2000/svg">
<path d="M6.54928 9.87474L2.66928 5.99474L6.54928 2.11474C6.64186 2.02216 6.7153 1.91225 6.76541 1.79128C6.81551 1.67032 6.8413 1.54067 6.8413 1.40974C6.8413 1.27881 6.81551 1.14916 6.76541 1.0282C6.7153 0.907233 6.64186 0.797322 6.54928 0.704741C6.4567 0.612159 6.34679 0.538719 6.22582 0.488614C6.10486 0.438509 5.97521 0.41272 5.84428 0.41272C5.71335 0.41272 5.5837 0.438509 5.46274 0.488614C5.34177 0.538719 5.23186 0.612159 5.13928 0.704741L0.54928 5.29474C0.456577 5.38725 0.383029 5.49714 0.332848 5.61812C0.282666 5.73909 0.256836 5.86877 0.256836 5.99974C0.256836 6.13071 0.282666 6.26039 0.332848 6.38136C0.383029 6.50234 0.456577 6.61223 0.54928 6.70474L5.13928 11.2947C5.52928 11.6847 6.15928 11.6847 6.54928 11.2947C6.92928 10.9047 6.93928 10.2647 6.54928 9.87474Z"/>
</svg>
