<svg width="12" height="9" viewBox="0 0 12 9" fill="none" xmlns="http://www.w3.org/2000/svg">
<path d="M3.77715 6.29622L9.67715 0.396215C9.86048 0.212882 10.0938 0.121216 10.3771 0.121216C10.6605 0.121216 10.8938 0.212882 11.0771 0.396215C11.2605 0.579549 11.3521 0.812882 11.3521 1.09622C11.3521 1.37955 11.2605 1.61288 11.0771 1.79622L4.47715 8.39622C4.27715 8.59622 4.04381 8.69622 3.77715 8.69622C3.51048 8.69622 3.27715 8.59622 3.07715 8.39622L0.477148 5.79622C0.293815 5.61288 0.202148 5.37955 0.202148 5.09622C0.202148 4.81288 0.293815 4.57955 0.477148 4.39622C0.660481 4.21288 0.893815 4.12122 1.17715 4.12122C1.46048 4.12122 1.69382 4.21288 1.87715 4.39622L3.77715 6.29622Z" />
</svg>
