<svg width="256" height="159" viewBox="0 0 256 159" fill="none" xmlns="http://www.w3.org/2000/svg">
<path d="M93.5508 17.1562H162.701V141.407H93.5508V17.1562Z" fill="#FF5F00"/>
<path d="M97.9419 79.2822C97.9419 54.0372 109.796 31.6452 128.016 17.1562C114.626 6.61924 97.7229 0.253235 79.2829 0.253235C35.5959 0.253235 0.25293 35.5962 0.25293 79.2822C0.25293 122.967 35.5959 158.311 79.2819 158.311C97.7219 158.311 114.625 151.945 128.016 141.407C109.796 127.138 97.9419 104.527 97.9419 79.2822Z" fill="#EB001B"/>
<path d="M255.999 79.2822C255.999 122.967 220.656 158.311 176.97 158.311C158.53 158.311 141.627 151.945 128.236 141.407C146.676 126.919 158.311 104.527 158.311 79.2822C158.311 54.0372 146.456 31.6452 128.236 17.1562C141.626 6.61924 158.53 0.253235 176.97 0.253235C220.656 0.253235 255.999 35.8162 255.999 79.2822Z" fill="#F79E1B"/>
</svg>
