<svg width="257" height="84" viewBox="0 0 257 84" fill="none" xmlns="http://www.w3.org/2000/svg">
<path d="M133.004 27.3757C132.858 38.8917 143.267 45.3177 151.108 49.1387C159.164 53.0587 161.87 55.5727 161.838 59.0787C161.778 64.4437 155.412 66.8117 149.455 66.9037C139.062 67.0647 133.019 64.0977 128.215 61.8537L124.471 79.3727C129.291 81.5937 138.216 83.5307 147.471 83.6157C169.196 83.6157 183.409 72.8917 183.486 56.2647C183.571 35.1627 154.298 33.9947 154.498 24.5627C154.567 21.7027 157.296 18.6507 163.276 17.8747C166.236 17.4827 174.407 17.1827 183.671 21.4487L187.307 4.49873C182.325 2.68473 175.922 0.947723 167.95 0.947723C147.502 0.947723 133.12 11.8177 133.004 27.3757ZM222.245 2.40772C218.278 2.40772 214.935 4.72172 213.443 8.27272L182.41 82.3707H204.119L208.439 70.4317H234.967L237.473 82.3707H256.607L239.91 2.40772H222.245ZM225.282 24.0087L231.547 54.0357H214.389L225.282 24.0087ZM106.683 2.40872L89.5714 82.3697H110.258L127.362 2.40672H106.683M76.0804 2.40672L54.5484 56.8337L45.8384 10.5567C44.8164 5.39072 40.7804 2.40772 36.2984 2.40772H1.10042L0.607422 4.72972C7.83342 6.29772 16.0434 8.82672 21.0174 11.5327C24.0614 13.1857 24.9294 14.6307 25.9294 18.5587L42.4264 82.3707H64.2874L97.8034 2.40772L76.0804 2.40672Z" fill="url(#paint0_linear_67_16)"/>
<defs>
<linearGradient id="paint0_linear_67_16" x1="11770" y1="249.448" x2="12009.2" y2="-8240.68" gradientUnits="userSpaceOnUse">
<stop stop-color="#222357"/>
<stop offset="1" stop-color="#254AA5"/>
</linearGradient>
</defs>
</svg>
